{"title":"Shunji Iwai - Love Letter (1995, DVDRip, XviD)","uid":8763281,"size":734169088,"categoryP":"video","categoryS":"movies","magnet":"?xt=urn:btih:bcf533d4c1d3ac0d865ea60a33ec6a1aeb16b30d&amp;dn=Shunji+Iwai+-+Love+Letter+%281995%2C+DVDRip%2C+XviD%29&amp;tr=udp%3A%2F%2Ftracker.openbittorrent.com%3A80&amp;tr=udp%3A%2F%2Fopen.demonii.com%3A1337&amp;tr=udp%3A%2F%2Ftracker.coppersurfer.tk%3A6969&amp;tr=udp%3A%2F%2Fexodus.desync.com%3A6969","seeders":1,"leechers":0,"uploader":"rpessoa","files":1,"time":1375285285,"description":"When exchanging letters two women discover new things about a man they knew. From IMDb.\n &lt;a href=&quot;\nhttp://www.imdb.com/title/tt0113703/&quot; rel=&quot;nofollow&quot; target=&quot;_NEW&quot;&gt;\nhttp://www.imdb.com/title/tt0113703/&lt;/a&gt;\n\nGeneral\nComplete name : LoveLetter(1995).avi\nFormat : AVI\nFormat/Info : Audio Video Interleave\nFile size : 700 MiB\nDuration : 1h 56mn\nOverall bit rate mode : Variable\nOverall bit rate : 842 Kbps\nWriting application : Nandub v1.0rc2\nWriting library : Nandub build 1853/release\n\nVideo\nID : 0\nFormat : MPEG-4 Visual\nCodec ID : DIV3\nCodec ID/Hint : DivX 3 Low\nDuration : 1h 56mn\nBit rate : 664 Kbps\nWidth : 608 pixels\nHeight : 256 pixels\nDisplay aspect ratio : 2.40:1\nFrame rate : 23.976 fps\nColor space : YUV\nChroma subsampling : 4:2:0\nBit depth : 8 bits\nCompression mode : Lossy\nBits/(Pixel*Frame) : 0.178\nStream size : 552 MiB (79%)\n\nAudio\nID : 1\nFormat : MPEG Audio\nFormat version : Version 1\nFormat profile : Layer 3\nMode : Joint stereo\nMode extension : MS Stereo\nCodec ID : 55\nCodec ID/Hint : MP3\nDuration : 1h 56mn\nBit rate mode : Variable\nBit rate : 166 Kbps\nMinimum bit rate : 128 Kbps\nChannel(s) : 2 channels\nSampling rate : 48.0 KHz\nCompression mode : Lossy\nStream size : 138 MiB (20%)\nAlignment : Aligned on interleaves\nInterleave, duration : 24 ms (0.58 video frame)\nInterleave, preload duration : 393 ms\nWriting library : LAME3.91\nEncoding settings : -m j -V 4 -q 2 -lowpass 18.7 --vbr-new -b 128\n","torrent":{"xt":"urn:btih:bcf533d4c1d3ac0d865ea60a33ec6a1aeb16b30d","amp;dn":"Shunji+Iwai+-+Love+Letter+%281995%2C+DVDRip%2C+XviD%29","amp;tr":["udp%3A%2F%2Ftracker.openbittorrent.com%3A80","udp%3A%2F%2Fopen.demonii.com%3A1337","udp%3A%2F%2Ftracker.coppersurfer.tk%3A6969","udp%3A%2F%2Fexodus.desync.com%3A6969"],"infoHash":"bcf533d4c1d3ac0d865ea60a33ec6a1aeb16b30d","infoHashBuffer":{"type":"Buffer","data":[188,245,51,212,193,211,172,13,134,94,166,10,51,236,106,26,235,22,179,13]},"announce":[],"urlList":[]}}